#!OML:ASF F:\VICON\USERDATA\INSTALL\rory3\rory3.ASF
:FULLY-SPECIFIED
:DEGREES
989
root -0.999166 20.3227 7.10895 0.421194 5.37081 3.71443
lowerback 3.6652 -0.119472 -4.71066
upperback 1.90269 -0.300426 1.5176
thorax -0.0622957 -0.188722 4.22236
lowerneck -12.5564 1.06293 -10.087
upperneck 40.7049 4.42594 1.41133
head 16.6083 0.523636 3.20234
rclavicle 1.15295e-014 2.3059e-014
rhumerus -34.6967 -7.91641 -77.5054
rradius 40.7825
rwrist 16.745
rhand -20.3799 2.08214
rfingers 7.12502
rthumb 5.97304 -27.8137
lclavicle 1.15295e-014 2.3059e-014
lhumerus -33.936 8.17052 79.9314
lradius 34.3187
lwrist -3.49837
lhand -12.841 26.7526
lfingers 7.12502
lthumb 13.2464 56.3117
rfemur -21.3233 -0.213448 15.6386
rtibia 27.8316
rfoot 6.99812 -28.3257
rtoes 33.0566
lfemur -15.7619 -3.08679 -27.1979
ltibia 46.4912
lfoot -10.4803 -0.854562
ltoes 13.8121
990
root -1.01595 20.2426 7.17359 0.421689 5.25024 3.68338
lowerback 3.55824 -0.0677894 -4.6398
upperback 1.89967 -0.224514 1.52449
thorax -0.0142767 -0.151482 4.18613
lowerneck -12.4599 1.07438 -10.2688
upperneck 40.5745 4.39629 1.60998
head 16.501 0.520716 3.3101
rclavicle 5.36719e-015 -1.66979e-014
rhumerus -34.8994 -7.54792 -77.5666
rradius 40.8326
rwrist 16.9419
rhand -19.8928 1.39027
rfingers 7.12502
rthumb 6.44328 -28.4917
lclavicle 5.36719e-015 -1.66979e-014
lhumerus -33.8769 8.53857 79.7138
lradius 34.5309
lwrist -3.48064
lhand -12.8943 26.5541
lfingers 7.12502
lthumb 13.1951 56.1165
rfemur -20.7716 0.249129 15.7327
rtibia 26.8336
rfoot 7.68589 -28.1844
rtoes 32.9372
lfemur -16.1343 -2.92325 -27.1116
ltibia 47.7641
lfoot -11.2202 -0.659687
ltoes 14.0493
991
root -1.03231 20.1671 7.23931 0.538827 5.08767 3.69079
lowerback 3.3323 0.0329008 -4.56592
upperback 1.87599 -0.0785007 1.49517
thorax 0.0716247 -0.0794818 4.10817
lowerneck -12.4337 1.07289 -10.3288
upperneck 40.5252 4.36371 1.72059
head 16.4629 0.517887 3.36214
rclavicle -2.68359e-015 -1.11319e-014
rhumerus -34.999 -7.44966 -77.5822
rradius 40.8259
rwrist 17.6486
rhand -19.2437 0.259939
rfingers 7.12502
rthumb 7.06995 -29.602
lclavicle -2.68359e-015 -1.11319e-014
lhumerus -33.8243 8.8267 79.528
lradius 34.8389
lwrist -3.41062
lhand -12.839 26.3711
lfingers 7.12502
lthumb 13.2484 55.93
rfemur -20.4274 0.54463 15.8468
rtibia 26.0029
rfoot 9.55821 -27.7804
rtoes 30.9071
lfemur -16.6306 -2.65292 -27.0603
ltibia 49.0716
lfoot -11.9997 -0.54397
ltoes 14.3691
992
root -1.05109 20.0914 7.30637 0.556261 4.96123 3.64704
lowerback 3.22365 0.119907 -4.46278
upperback 1.88314 0.0451318 1.48707
thorax 0.12652 -0.0183248 4.0373
lowerneck -12.4527 1.09838 -10.2123
upperneck 40.4631 4.45549 1.51098
head 16.4404 0.548937 3.26195
rclavicle 1.799e-014 -1.59028e-015
rhumerus -35.0198 -7.54124 -77.4901
rradius 40.5598
rwrist 18.2894
rhand -18.6125 0.381242
rfingers 7.12502
rthumb 7.67918 -29.4593
lclavicle 1.799e-014 -1.59028e-015
lhumerus -33.7518 9.06019 79.3706
lradius 35.1453
lwrist -3.2289
lhand -12.8318 26.5213
lfingers 7.12502
lthumb 13.2553 56.0798
rfemur -20.0191 0.826007 16.0409
rtibia 25.3211
rfoot 11.51 -27.6275
rtoes 28.757
lfemur -17.0425 -2.44096 -26.9315
ltibia 50.4133
lfoot -12.8129 -0.465317
ltoes 14.511
993
root -1.07055 20.0088 7.37057 0.455794 4.76926 3.48061
lowerback 3.27098 0.198941 -4.26234
upperback 1.90416 0.15427 1.5365
thorax 0.110276 0.0376053 3.97176
lowerneck -12.5091 1.11672 -10.2312
upperneck 40.3835 4.5486 1.37827
head 16.4122 0.570438 3.22002
rclavicle 6.5102e-015 -1.90833e-014
rhumerus -35.0757 -7.27306 -77.5515
rradius 40.4077
rwrist 18.0904
rhand -18.3981 0.157882
rfingers 7.12502
rthumb 7.88616 -29.675
lclavicle 6.5102e-015 -1.90833e-014
lhumerus -33.7007 9.35605 79.2318
lradius 35.4165
lwrist -2.95487
lhand -12.9872 26.7864
lfingers 7.12502
lthumb 13.1055 56.3546
rfemur -19.4761 1.05971 16.4216
rtibia 24.7749
rfoot 12.7641 -27.5483
rtoes 27.7368
lfemur -17.3764 -2.16489 -26.6549
ltibia 51.8077
lfoot -13.6813 -0.357082
ltoes 14.0637
994
root -1.08932 19.9134 7.436 0.43017 4.56298 3.4266
lowerback 3.26526 0.296141 -4.09174
upperback 1.87006 0.288141 1.48437
thorax 0.0653993 0.107862 3.81686
lowerneck -12.5436 1.13773 -10.237
upperneck 40.3806 4.56529 1.43966
head 16.4136 0.585337 3.25179
rclavicle -6.4605e-015 4.77083e-015
rhumerus -35.1348 -7.25246 -77.6719
rradius 40.1581
rwrist 17.8432
rhand -18.4691 0.222704
rfingers 7.12502
rthumb 7.81756 -29.6128
lclavicle -6.4605e-015 4.77083e-015
lhumerus -33.6874 9.46406 79.0214
lradius 35.6273
lwrist -2.66819
lhand -13.3354 26.7077
lfingers 7.12502
lthumb 12.7699 56.2972
rfemur -18.9705 1.05019 16.731
rtibia 24.3787
rfoot 13.6164 -27.4813
rtoes 28.1719
lfemur -17.7954 -1.835 -26.5015
ltibia 53.2477
lfoot -14.6586 -0.281346
ltoes 13.9176
995
root -1.11047 19.8121 7.50515 0.438976 4.35384 3.41831
lowerback 3.2101 0.405104 -3.95478
upperback 1.82531 0.438385 1.38552
thorax 0.0369346 0.185942 3.63228
lowerneck -12.5279 1.18225 -10.081
upperneck 40.3241 4.60359 1.38821
head 16.3802 0.621892 3.20552
rclavicle 4.67144e-015 2.06736e-014
rhumerus -35.1726 -7.41008 -77.7981
rradius 39.7007
rwrist 18.0786
rhand -18.8862 0.80698
rfingers 7.12502
rthumb 7.415 -29.0431
lclavicle 4.67144e-015 2.06736e-014
lhumerus -33.6815 9.54983 78.7665
lradius 35.8437
lwrist -2.45845
lhand -13.397 26.9022
lfingers 7.12502
lthumb 12.7105 56.4953
rfemur -18.4866 1.0594 16.9962
rtibia 24.1586
rfoot 14.1786 -27.6934
rtoes 29.333
lfemur -18.2439 -1.46829 -26.3921
ltibia 54.7239
lfoot -15.6863 -0.272666
ltoes 13.3072
996
root -1.13345 19.708 7.5754 0.390674 4.16336 3.50276
lowerback 3.14358 0.488433 -3.99457
upperback 1.84289 0.550947 1.31418
thorax 0.0821721 0.240964 3.57776
lowerneck -12.5116 1.22215 -9.965
upperneck 40.1923 4.67281 1.25664
head 16.3089 0.657844 3.13303
rclavicle -1.00883e-014 -9.54166e-015
rhumerus -35.2164 -7.28931 -77.9331
rradius 39.3494
rwrist 18.468
rhand -19.3795 1.19623
rfingers 7.12502
rthumb 6.93885 -28.6701
lclavicle -1.00883e-014 -9.54166e-015
lhumerus -33.6602 9.80792 78.555
lradius 36.058
lwrist -2.23198
lhand -13.4371 27.2705
lfingers 7.12502
lthumb 12.6718 56.8661
rfemur -17.9698 1.07319 17.1597
rtibia 24.1141
rfoot 14.5457 -27.7673
rtoes 30.2556
lfemur -18.5633 -1.15099 -26.3979
ltibia 56.2067
lfoot -16.8366 -0.0922165
ltoes 12.2137
997
root -1.15675 19.6029 7.64475 0.325361 4.00302 3.56191
lowerback 3.07866 0.543361 -3.99739
upperback 1.91067 0.62733 1.25195
thorax 0.181837 0.276008 3.51341
lowerneck -12.6651 1.24071 -9.8761
upperneck 40.1049 4.72915 1.15981
head 16.3025 0.683469 3.08495
rclavicle 8.00108e-015 3.97569e-015
rhumerus -35.1475 -7.1306 -78.1178
rradius 39.0551
rwrist 18.7197
rhand -19.8328 1.41331
rfingers 7.12502
rthumb 6.50124 -28.4669
lclavicle 8.00108e-015 3.97569e-015
lhumerus -33.7619 10.0884 78.3432
lradius 36.4921
lwrist -1.92897
lhand -13.4419 27.4402
lfingers 7.12502
lthumb 12.6672 57.036
rfemur -17.4661 0.817507 17.3919
rtibia 24.1487
rfoot 15.1105 -26.8752
rtoes 29.432
lfemur -18.8525 -0.879738 -26.3661
ltibia 57.7225
lfoot -18.0291 0.107998
ltoes 11.4483
998
root -1.1793 19.4909 7.71334 0.317676 3.80726 3.63542
lowerback 3.04602 0.604726 -4.00441
upperback 1.90654 0.710066 1.19677
thorax 0.188905 0.317521 3.45804
lowerneck -12.8084 1.24683 -9.83706
upperneck 40.0568 4.77143 1.09117
head 16.3139 0.697498 3.05691
rclavicle -8.00108e-015 1.43125e-014
rhumerus -35.0202 -7.01241 -78.2633
rradius 38.6461
rwrist 18.8417
rhand -20.0294 1.68725
rfingers 7.12502
rthumb 6.31148 -28.1987
lclavicle -8.00108e-015 1.43125e-014
lhumerus -33.9404 10.4167 78.1273
lradius 36.9151
lwrist -1.87123
lhand -13.262 27.6819
lfingers 7.12502
lthumb 12.8407 57.267
rfemur -16.9758 0.316703 17.6428
rtibia 24.2383
rfoot 14.8852 -24.9049
rtoes 27.008
lfemur -19.2526 -0.57727 -26.3361
ltibia 59.2738
lfoot -19.026 0.0759487
ltoes 11.272
